<svg height="24" preserveAspectRatio="xMinYMin" viewBox="-2 -2 24 24" width="24" xmlns="http://www.w3.org/2000/svg"><path d="m10 18a8 8 0 1 0 0-16 8 8 0 0 0 0 16zm0 2c-5.523 0-10-4.477-10-10s4.477-10 10-10 10 4.477 10 10-4.477 10-10 10z"/><path d="m13.427 13.148v-5h-5v-.312c0-.517.42-.938.938-.938h.937v-1.875h-.937a2.816 2.816 0 0 0 -2.813 2.813v.312h-1.25v1.875h1.25v3.125h-1.25v1.875h4.375v-1.875h-1.25v-3.125h3.143v3.125h-1.268v1.875h4.375v-1.875z"/><circle cx="12.402" cy="5.971" r="1.001"/></svg>